PathFileType	4	(X/Y/Z)	C:\Users\WrightLab\Desktop\Jo\P2_Trial14.trc
DataRate	CameraRate	NumFrames	NumMarkers	Units	OrigDataRate	OrigDataStartFrame	OrigNumFrames
100.00	100.00	       8	19	mm	100.00	391	       781
Frame#	Time	Headset_Front			Headset_Back			Headset_Left			Headset_Right			Left_Shoulder			Right_Shoulder			Sternum			C7			Left Elbow			Right Elbow			Left Wrist			Right Wrist			Left ASIS			Right ASIS			S2			Left Knee			Right Knee			Left Ankle			Right Ankle			
		X1	Y1	Z1	X2	Y2	Z2	X3	Y3	Z3	X4	Y4	Z4	X5	Y5	Z5	X6	Y6	Z6	X7	Y7	Z7	X8	Y8	Z8	X9	Y9	Z9	X10	Y10	Z10	X11	Y11	Z11	X12	Y12	Z12	X13	Y13	Z13	X14	Y14	Z14	X15	Y15	Z15	X16	Y16	Z16	X17	Y17	Z17	X18	Y18	Z18	X19	Y19	Z19	

391	3.900	60.71180	1462.42969	856.07745	102.90623	1703.96924	1044.69812	-17.04261	1583.73340	1010.93317	178.44382	1555.93738	884.61493	18.84963	1458.80811	1165.82141	288.71619	1452.81177	971.54388	122.73820	1332.56335	1027.96375	227.86694	1459.95081	1151.54968	-5.18114	1185.75232	1310.27710	451.57620	1151.57751	987.63000	-140.01350	1181.25769	1208.66711	344.89523	1105.97363	801.40259	81.77091	1056.84509	1043.34082	197.40404	1041.47620	984.77917	240.01439	977.50250	1254.62634	-14.98458	491.58017	1053.29443	421.52765	568.64105	1143.81677	-102.07166	166.67732	956.48767	455.75882	137.89813	1217.10815	
392	3.910	56.16271	1461.55957	849.91296	99.62003	1702.41602	1039.16968	-21.38955	1581.93909	1004.69263	174.85327	1555.59814	879.18671	13.80358	1456.68042	1159.06848	283.87701	1451.35779	965.61920	118.64465	1330.59583	1020.86145	223.29442	1458.10925	1145.13110	-8.70076	1183.91626	1305.29736	445.35129	1149.28149	980.16895	-143.39629	1181.02405	1210.39868	337.76947	1103.65833	794.77405	78.14780	1054.42322	1035.73645	193.51764	1039.61682	978.32159	235.53664	975.36023	1247.33496	-17.31295	489.74640	1047.00867	419.01056	566.72168	1138.33337	-113.59999	172.11961	943.72394	454.60641	137.01114	1216.36743	
393	3.920	52.09686	1460.80225	843.47137	94.74991	1700.13391	1033.63513	-25.05553	1580.47473	998.11505	169.33887	1553.59033	872.02283	9.16788	1454.25623	1152.65515	279.13062	1449.39185	959.12500	113.60413	1328.74194	1014.68188	218.54123	1456.23328	1138.77222	-10.73725	1183.16150	1299.55542	439.71640	1146.80884	972.40991	-147.49710	1178.10791	1206.47461	331.37231	1101.57813	789.17633	74.75416	1052.84521	1027.82434	189.65341	1037.87830	971.88898	230.72446	973.09003	1240.47437	-18.48074	487.11911	1041.22949	416.87524	565.48779	1132.13855	-124.49433	175.95779	931.96069	452.98965	136.15108	1213.98303	
394	3.930	47.59627	1459.98059	837.07422	89.67306	1698.78259	1028.44788	-30.28266	1579.18420	992.56024	165.37621	1553.30945	867.39020	4.08231	1451.69653	1146.45825	274.39917	1447.87061	953.54883	108.92822	1327.23120	1007.68182	213.68510	1454.35168	1132.21667	-14.41973	1180.94495	1294.08838	433.41837	1144.17920	964.68060	-151.22498	1175.37219	1201.73767	324.98254	1099.04065	783.04529	69.98465	1050.86194	1020.92798	185.49742	1035.30371	964.83362	225.50140	970.67871	1233.12891	-21.65988	485.70996	1035.12354	414.52597	563.82690	1126.47986	-133.77437	179.51633	921.04504	452.12064	136.12524	1212.18469	
395	3.940	42.97984	1459.07947	830.68768	84.81296	1697.17920	1023.18378	-35.35439	1578.08838	986.21045	160.96225	1552.17371	862.00098	-1.71151	1449.40588	1140.07910	269.19034	1446.54517	946.39716	104.10811	1325.34692	1000.84576	208.23764	1452.14124	1125.71289	-19.32768	1178.87390	1288.84192	427.08502	1141.89636	957.44891	-155.44427	1172.80396	1196.43542	317.97348	1097.25427	776.99298	65.34530	1049.23218	1013.49536				220.15166	968.86426	1226.42310	-25.50029	483.27350	1029.24927	412.31570	562.13660	1120.62476	-143.22388	182.64542	910.30548	450.46988	135.24693	1209.69104	
396	3.950	38.70901	1458.54749	823.83099	78.81219	1695.25464	1018.09625	-40.61789	1576.76343	979.64978	155.55983	1550.36377	855.44464	-7.03210	1447.28955	1133.71362	263.89529	1444.87305	940.47131	98.94383	1323.67114	993.83435	203.03680	1450.29395	1119.24854	-22.63723	1176.72803	1282.60535	421.17972	1139.61707	951.03076	-159.77919	1169.99292	1190.87024	311.48416	1096.02063	770.25916	60.53901	1047.45837	1006.01685	176.20836	1032.10034	948.07623	215.17947	966.41150	1218.53271	-29.67124	481.37518	1023.46246	409.52438	560.52875	1114.01343	-152.25117	185.07350	900.51788	448.44955	134.28076	1208.73047	
397	3.960	33.97413	1457.96521	817.10785	74.55200	1694.13708	1012.65393	-46.15527	1575.99744	973.73206	151.34369	1550.04199	850.20551	-12.84856	1445.41443	1127.13538	258.52469	1443.55310	933.64648	93.39774	1322.27930	987.14215	197.47040	1448.46106	1113.19263	-26.61372	1175.19360	1277.09448	414.44046	1137.43286	943.57764	-163.46831	1167.57495	1185.10547	305.44733	1094.15222	764.30188	55.19332	1045.45300	998.87897	171.22836	1030.10303	941.49066	209.65779	964.51526	1210.70850	-33.97408	478.89420	1017.13989	406.49722	559.25464	1107.42224	-160.00159	186.18350	891.40674	446.57196	134.44313	1205.18591	
398	3.970	28.43855	1457.69250	811.24707	69.00515	1692.25012	1007.34576	-51.26581	1574.50586	967.22900	146.07425	1549.80579	844.00623	-18.15309	1443.25989	1120.48010	252.97090	1442.00073	927.23022	87.43725	1320.35950	980.48065	191.92520	1446.69556	1106.52039	-31.48360	1172.06714	1270.31653	407.80087	1135.45044	936.89978	-168.74995	1161.99731	1173.21191	298.52994	1093.02759	757.00763	50.02406	1043.75403	990.89789	165.63843	1027.78333	934.21313	203.80392	962.93774	1203.30786	-39.04860	476.54437	1010.84729	403.45367	557.68512	1100.63025	-168.85861	186.95624	883.17383	445.04285	134.24530	1204.26746	
